<svg xmlns="http://www.w3.org/2000/svg" viewBox="0 0 3400.8 3399.9"><defs><style>.cls-1{fill:#4a7993;}</style></defs><title>Asset 1</title><g id="Layer_2" data-name="Layer 2"><g id="Layer_1-2" data-name="Layer 1"><path class="cls-1" d="M1757.08,0a1695.42,1695.42,0,0,1,496,90.91c-229.5,108.32-409.34,304.66-496,545.43Z"/><path class="cls-1" d="M1757.08,962.65c0-382.87,237.21-710.26,572.69-843.29,396.42,158,719.39,460.93,903.54,843.29h-2.55V1076H1757.08Z"/><path class="cls-1" d="M226.72,1699.49c0-200.87,40.19-392.34,113-566.8H963.6v174.12c-192.26,27.43-340.08,192.83-340.08,392.68a394.85,394.85,0,0,0,71.13,226.72H244.06A1481,1481,0,0,1,226.72,1699.49Z"/><path class="cls-1" d="M1297.92,1982.89A395.44,395.44,0,0,0,1417,1699.49c0-219.13-177.63-396.76-396.76-396.76v-170H2380.56v170c-219.13,0-396.76,177.63-396.76,396.76a395.48,395.48,0,0,0,119.08,283.4H3146.82a1457.37,1457.37,0,0,1-63.48,226.72H1978.08c-154.27-151.15-401.09-151.15-555.36,0H317.46A1457.37,1457.37,0,0,1,254,1982.89Z"/><path class="cls-1" d="M2706.19,1926.21a394.85,394.85,0,0,0,71.13-226.72c0-199.85-147.82-365.25-340.08-392.68V1132.69h623.88c72.77,174.46,113,365.93,113,566.8a1479.74,1479.74,0,0,1-17.34,226.72Z"/><path class="cls-1" d="M1643.72,0V636.34c-86.61-240.77-266.45-437.11-496-545.43A1695.42,1695.42,0,0,1,1643.72,0Z"/><path class="cls-1" d="M1071,119.36c335.48,133,572.69,460.42,572.69,843.29V1076H170V962.65h-2.55C351.64,580.29,674.61,277.39,1071,119.36Z"/><path class="cls-1" d="M2947.4,2855.49c-310.44,334.86-754.24,544.41-1247,544.41s-936.52-209.56-1247-544.41V2719.73H888.7a1300.79,1300.79,0,0,0,279.21,170h1064.9a1300.79,1300.79,0,0,0,279.21-170H2947.4Z"/><path class="cls-1" d="M3101.63,2663.06H299.21C110.47,2389.18,0,2057.26,0,1699.5a1698.61,1698.61,0,0,1,96.75-566.8H278.47C208.53,1308,170,1499.25,170,1699.5s38.49,391.55,108.43,566.8h1168.4c125.28-140,340.34-152,480.36-26.7a339.72,339.72,0,0,1,26.7,26.7h1168.4c69.94-175.25,108.43-366.55,108.43-566.8s-38.49-391.55-108.43-566.8h181.72a1698.3,1698.3,0,0,1,96.75,566.79c0,357.76-110.47,689.68-299.21,963.56Z"/></g></g></svg>