<svg id="Layer_1" data-name="Layer 1" xmlns="http://www.w3.org/2000/svg" viewBox="0 0 5668 5668"><defs><style>.cls-1{fill:#4a7993;}</style></defs><title>MOMO-FUTU-LOGO</title><path class="cls-1" d="M0,0V5668H5668V0ZM2890.68,1134.51a1695.38,1695.38,0,0,1,496,90.91c-229.5,108.32-409.34,304.66-496,545.43Zm0,962.65c0-382.87,237.21-710.26,572.69-843.29,396.42,158,719.39,460.93,903.54,843.29h-2.55v113.36H2890.68ZM1360.32,2834c0-200.87,40.19-392.34,113-566.8h623.88v174.12c-192.26,27.43-340.08,192.83-340.08,392.68a394.86,394.86,0,0,0,71.13,226.72H1377.66A1480.27,1480.27,0,0,1,1360.32,2834Zm1071.2,283.4A395.48,395.48,0,0,0,2550.6,2834c0-219.13-177.63-396.76-396.76-396.76v-170H3514.16v170c-219.13,0-396.76,177.63-396.76,396.76a395.48,395.48,0,0,0,119.08,283.4H4280.42a1457.38,1457.38,0,0,1-63.48,226.72H3111.68a396.77,396.77,0,0,0-555.36,0H1451.06a1457.38,1457.38,0,0,1-63.48-226.72Zm1408.27-56.68A394.86,394.86,0,0,0,3910.92,2834c0-199.85-147.82-365.25-340.08-392.68V2267.2h623.88c72.77,174.46,113,365.93,113,566.8a1480.27,1480.27,0,0,1-17.34,226.72ZM2777.32,1134.51v636.34c-86.61-240.77-266.45-437.11-496-545.43A1695.38,1695.38,0,0,1,2777.32,1134.51Zm-572.69,119.36c335.48,133,572.69,460.42,572.69,843.29v113.36H1303.64V2097.16h-2.55C1485.24,1714.8,1808.21,1411.9,2204.63,1253.87ZM4081,3990c-310.44,334.86-754.24,544.41-1247,544.41S1897.48,4324.85,1587,3990V3854.24h435.3a1300.72,1300.72,0,0,0,279.21,170h1064.9a1300.72,1300.72,0,0,0,279.21-170H4081Zm154.23-192.43H1432.81c-188.74-273.88-299.21-605.8-299.21-963.56a1698.58,1698.58,0,0,1,96.75-566.8h181.72c-69.94,175.25-108.43,366.55-108.43,566.8s38.49,391.55,108.43,566.8h1168.4a340.19,340.19,0,0,1,507.06,0h1168.4c69.94-175.25,108.43-366.55,108.43-566.8s-38.49-391.55-108.43-566.8h181.72A1698.58,1698.58,0,0,1,4534.4,2834C4534.4,3191.76,4423.93,3523.68,4235.19,3797.56Z"/></svg>